<svg xmlns="http://www.w3.org/2000/svg" viewBox="0 0 128 128"><path fill="#fff" d="M78.8,99.2c8.4,0,15.3-6.8,15.3-15.3V28.8H33v55.1c0,8.399,6.8,15.3,15.3,15.3L78.8,99.2"></path><path fill="#c98f82" d="M48.3,97.7c-7.6,0-13.8-6.2-13.8-13.8V51l7.6,2.1c2.2,0.6,4.5,0.9,6.7,0.9c5.6,0,11.2-1.9,15.601-5.4 c3.899-3.1,8.8-4.8,13.8-4.8c3.5,0,6.899,0.8,10,2.4l4.3,2.2V84c0,7.6-6.2,13.8-13.8,13.8H48.3V97.7"></path><path fill="#e5e5e5" d="M78.8,28.8v15.008c3.288,0.086,6.477,0.884,9.4,2.393l4.3,2.2l1.5,0.723V28.8H78.8z"></path><path fill="#b58075" d="M78.8,43.808V83.9c0,6.193-3.61,11.484-8.857,13.899H78.7c7.6,0,13.8-6.2,13.8-13.8V48.4l-4.3-2.2 C85.277,44.692,82.088,43.894,78.8,43.808"></path><path fill="#454b54" d="M78.8,102.2H48.3C38.2,102.2,30,94,30,83.9V28.8c0-1.7,1.3-3,3-3h61c1.7,0,3,1.3,3,3v55.1 C97,94,88.9,102.2,78.8,102.2z M36,31.8v52.1c0,6.8,5.5,12.3,12.3,12.3h30.5c6.8,0,12.3-5.5,12.3-12.3V31.8H36z"></path><path fill="#454b54" d="M101.4,70h-5.6c-1.7,0-3-1.3-3-3s1.3-3,3-3h5.601c3.899,0,7.6-1.5,7.6-12.3s-3.7-12.3-7.6-12.3H95.8 c-1.7,0-3-1.3-3-3s1.3-3,3-3h5.601c9,0,13.6,6.1,13.6,18.3C115,63.8,110.4,70,101.4,70z"></path></svg>
